<svg width="142" height="37" viewBox="0 0 142 37" fill="none" xmlns="http://www.w3.org/2000/svg">
<path fill-rule="evenodd" clip-rule="evenodd" d="M140.899 11.0386H140.722V11.2677H140.894C140.99 11.2677 141.028 11.2273 141.028 11.1516C141.028 11.0844 140.99 11.0386 140.899 11.0386ZM141.011 11.8557L140.84 11.4997H140.722V11.8557H140.436V10.7988H140.907C141.154 10.7988 141.317 10.8932 141.317 11.1437C141.317 11.303 141.242 11.4 141.127 11.4539L141.336 11.8557H141.011ZM140.841 10.5688C140.401 10.5688 140.072 10.8813 140.072 11.3507C140.072 11.8197 140.401 12.1326 140.841 12.1326C141.28 12.1326 141.609 11.8197 141.609 11.3507C141.609 10.8813 141.28 10.5688 140.841 10.5688ZM140.84 12.3243C140.291 12.3243 139.874 11.9037 139.874 11.351C139.874 10.7984 140.291 10.3774 140.84 10.3774C141.389 10.3774 141.807 10.7984 141.807 11.351C141.807 11.9037 141.389 12.3243 140.84 12.3243Z" fill="white"/>
<path fill-rule="evenodd" clip-rule="evenodd" d="M64.1359 25.9436C63.9378 25.9436 63.7775 25.7854 63.7775 25.5909V18.0392C63.7775 15.4234 63.0138 14.6438 61.4019 14.6438C59.7891 14.6438 58.9973 15.4234 58.9973 17.9558V25.5909C58.9973 25.7854 58.8369 25.9436 58.6389 25.9436H55.452C55.2544 25.9436 55.0941 25.7854 55.0941 25.5909V18.0392C55.0941 15.4234 54.3298 14.6438 52.7175 14.6438C51.1052 14.6438 50.3133 15.4234 50.3133 17.9558V25.5909C50.3133 25.7854 50.153 25.9436 49.9554 25.9436H46.7681C46.57 25.9436 46.4097 25.7854 46.4097 25.5909V11.7169C46.4097 11.5043 46.585 11.3323 46.801 11.3323H49.922C50.1385 11.3323 50.3133 11.5043 50.3133 11.7169V12.3064C50.9923 11.6101 52.0104 11.0259 53.566 11.0259C55.4612 11.0259 56.5645 11.5544 57.6678 12.8906C58.6863 11.8608 59.9305 11.0259 62.3914 11.0259C66.1817 11.0259 67.6807 13.5863 67.6807 17.7056V25.5909C67.6807 25.7854 67.5204 25.9436 67.3223 25.9436H64.1359Z" fill="#135359"/>
<path fill-rule="evenodd" clip-rule="evenodd" d="M79.2146 19.6438C78.5294 19.2345 77.8741 19.0435 76.4764 19.0435C74.9933 19.0435 74.1948 19.6985 74.1948 20.8446C74.1948 21.8542 74.7935 22.7545 76.4764 22.7545C77.7598 22.7545 78.7868 22.1271 79.2146 21.4449V19.6438ZM79.5766 25.6438C79.3768 25.6438 79.2152 25.4888 79.2152 25.2982V24.6889C78.5017 25.3982 77.2471 25.9436 75.8495 25.9436C73.0541 25.9436 70.2593 24.3073 70.2593 20.8439C70.2593 17.6802 72.9403 16.0981 76.3344 16.0981C77.7037 16.0981 78.5876 16.3712 79.2152 16.671V15.9617C79.2152 14.9531 78.5017 14.1345 77.0757 14.1345C75.4197 14.1345 74.4904 14.3432 73.2832 14.9311C73.1083 15.0161 72.893 14.9582 72.7982 14.7938L71.6315 12.7733C71.5353 12.6061 71.5998 12.3922 71.7746 12.3007C73.3794 11.4583 74.8005 11.0259 77.0757 11.0259C80.6978 11.0259 83.1508 12.8256 83.1508 16.0439V25.2982C83.1508 25.4888 82.9892 25.6438 82.7899 25.6438H79.5766Z" fill="#135359"/>
<path fill-rule="evenodd" clip-rule="evenodd" d="M94.9836 25.0671C93.3937 26.3177 92.1545 26.5914 90.9802 26.5914C88.5416 26.5914 86.964 24.7206 86.964 22.1133V14.7702H84.8029C84.6025 14.7702 84.4395 14.6096 84.4395 14.4111V11.7596C84.4395 11.5616 84.6025 11.401 84.8029 11.401H86.964V9.7448C86.964 9.41385 87.1109 9.09939 87.3653 8.88539L90.0696 6.60803C90.405 6.32512 90.9222 6.56096 90.9222 6.99673V11.401H95.127C95.3225 11.401 95.4531 11.5995 95.3736 11.7761L94.13 14.5402C94.0671 14.68 93.9266 14.7702 93.7714 14.7702H90.9222V21.0719C90.9222 22.4889 91.4389 22.8577 92.3854 22.8577C92.7921 22.8577 93.1432 22.7573 93.5489 22.5209C93.7331 22.4137 93.9718 22.4836 94.0632 22.6748L95.0931 24.5974C95.1702 24.759 95.1246 24.956 94.9836 25.0671Z" fill="#135359"/>
<path fill-rule="evenodd" clip-rule="evenodd" d="M102.987 25.9436C99.1193 25.9436 96.042 22.8892 96.042 18.4983C96.042 14.1074 99.0342 11.0259 103.156 11.0259C105.855 11.0259 107.626 12.2475 108.861 13.9519C108.96 14.0878 108.94 14.275 108.82 14.3932L106.678 16.4847C106.563 16.5968 106.373 16.58 106.275 16.4534C105.451 15.385 104.542 14.6528 103.072 14.6528C101.208 14.6528 99.9942 16.1532 99.9942 18.4983C99.9942 20.7892 101.208 22.3167 103.072 22.3167C104.505 22.3167 105.439 21.7381 106.39 20.694C106.49 20.5847 106.664 20.5721 106.773 20.6725L108.821 22.5375C108.954 22.6599 108.972 22.8625 108.858 23.0026C107.46 24.7257 105.789 25.9436 102.987 25.9436Z" fill="#135359"/>
<path fill-rule="evenodd" clip-rule="evenodd" d="M120.852 25.9431C120.654 25.9431 120.493 25.7828 120.493 25.5857V17.9334C120.493 15.2828 119.587 14.4928 117.971 14.4928C116.357 14.4928 115.422 15.2828 115.422 17.8489V25.5857C115.422 25.7828 115.261 25.9431 115.063 25.9431H111.87C111.672 25.9431 111.512 25.7828 111.512 25.5857V8.4321C111.512 8.10277 111.656 7.79035 111.908 7.57643L114.579 5.31023C114.911 5.02919 115.422 5.26388 115.422 5.69751V12.1243C116.102 11.4188 117.348 10.8267 118.907 10.8267C122.703 10.8267 124.403 13.4213 124.403 17.5954V25.5857C124.403 25.7828 124.242 25.9431 124.044 25.9431H120.852Z" fill="#135359"/>
<path fill-rule="evenodd" clip-rule="evenodd" d="M135.293 19.6438C134.609 19.2345 133.953 19.0435 132.555 19.0435C131.072 19.0435 130.273 19.6985 130.273 20.8446C130.273 21.8542 130.872 22.7545 132.555 22.7545C133.838 22.7545 134.865 22.1271 135.293 21.4449V19.6438ZM135.654 25.6438C135.455 25.6438 135.292 25.4888 135.292 25.2982V24.6889C134.58 25.3982 133.325 25.9436 131.928 25.9436C129.133 25.9436 126.337 24.3073 126.337 20.8439C126.337 17.6802 129.019 16.0981 132.412 16.0981C133.781 16.0981 134.665 16.3712 135.292 16.671V15.9617C135.292 14.9531 134.58 14.1345 133.154 14.1345C131.498 14.1345 130.569 14.3432 129.362 14.9311C129.187 15.0161 128.971 14.9582 128.877 14.7938L127.71 12.7733C127.613 12.6061 127.677 12.3922 127.852 12.3007C129.457 11.4583 130.878 11.0259 133.154 11.0259C136.776 11.0259 139.229 12.8256 139.229 16.0439V25.2982C139.229 25.4888 139.067 25.6438 138.868 25.6438H135.654Z" fill="#135359"/>
<path fill-rule="evenodd" clip-rule="evenodd" d="M14.9096 11.782L15.7339 6.64258C16.5039 7.50378 17.2394 8.40907 17.9371 9.3575C19.852 11.9608 21.3643 14.7317 22.4865 17.5976C22.5743 17.8224 22.8712 17.8703 23.0245 17.6829L23.5102 17.0911C23.763 16.7829 23.8503 16.3703 23.7343 15.9907C23.0774 13.8351 22.2182 11.7178 21.1663 9.66086C21.1668 9.65798 21.1668 9.65559 21.1668 9.65271C21.9281 8.59646 22.7359 7.59244 23.5854 6.64258L24.4092 11.782C24.4364 11.9516 24.5974 12.0671 24.7692 12.0403L29.9721 11.2261C29.3807 12.2157 28.7364 13.1867 28.0387 14.1351C26.1243 16.7379 23.924 19.0148 21.5118 20.9543C21.3226 21.1067 21.3682 21.4009 21.5962 21.4877L22.3152 21.7603C22.6898 21.9027 23.1143 21.8572 23.4437 21.631C25.3165 20.3475 27.0893 18.8863 28.7451 17.2626C28.7476 17.2622 28.75 17.2617 28.7529 17.2607C29.7829 17.5804 30.7886 17.9403 31.7682 18.339C32.0181 18.4406 32.0292 18.7881 31.7881 18.9088L27.7044 20.9643C27.5497 21.0424 27.4881 21.2293 27.5671 21.3822L29.9585 26.0189C28.8232 25.7692 27.6894 25.4635 26.5609 25.1016C23.4626 24.1072 20.5905 22.7438 17.9778 21.0769C17.7731 20.9461 17.5033 21.0803 17.4907 21.3209L17.45 22.0805C17.4291 22.4768 17.6038 22.8612 17.9235 23.1013C19.738 24.4638 21.6928 25.6777 23.7673 26.7311C23.7693 26.7335 23.7702 26.7354 23.7722 26.7383C23.7848 28.0346 23.729 29.3156 23.6067 30.5775L19.8816 26.8978C19.7594 26.7766 19.56 26.7766 19.4372 26.8978L15.7121 30.5775C15.602 29.4335 15.5452 28.2742 15.5452 27.1015C15.5452 23.8844 15.9702 20.7645 16.7678 17.7951C16.8304 17.5617 16.6184 17.3503 16.3826 17.4126L15.6384 17.6091C15.2507 17.7117 14.9349 17.9949 14.8024 18.3692C14.0509 20.4951 13.4867 22.7064 13.1131 24.9813C13.1111 24.9837 13.1097 24.9852 13.1077 24.9876C11.8638 25.4002 10.613 25.7433 9.3608 26.0189L11.7522 21.3822C11.8308 21.2293 11.7692 21.0424 11.6144 20.9643L6.9209 18.6021C7.98778 18.1449 9.08668 17.7337 10.2157 17.3714C13.3139 16.377 16.4491 15.812 19.5551 15.6442C19.7987 15.6308 19.9364 15.3667 19.8035 15.1645L19.3838 14.5257C19.165 14.1926 18.7949 13.9832 18.3936 13.975C16.1148 13.9261 13.8112 14.079 11.5057 14.4313C11.5028 14.4303 11.5009 14.4293 11.498 14.4284C10.7159 13.387 9.99928 12.3178 9.34721 11.2261L14.5501 12.0403C14.7219 12.0671 14.8825 11.9516 14.9096 11.782ZM8.45154 15.0159C7.39048 15.2636 6.33087 15.5507 5.27564 15.8895C3.50624 16.4574 1.80476 17.137 0.177027 17.9172C-0.0582783 18.0303 -0.0587634 18.3629 0.174116 18.4798L7.92319 22.3799L3.97442 30.0349C3.85604 30.2645 4.05447 30.5338 4.31161 30.4883C6.09314 30.1744 7.8737 29.7363 9.64359 29.1679C10.6988 28.8296 11.7269 28.4467 12.7326 28.0307C12.6429 29.1042 12.5924 30.1883 12.5924 31.2843C12.5924 33.1222 12.7205 34.9309 12.9689 36.7012C13.0048 36.9566 13.325 37.0601 13.5099 36.8776L19.6594 30.8031L25.8088 36.8776C25.9942 37.0601 26.3139 36.9571 26.3498 36.7012C26.5982 34.9309 26.7268 33.1222 26.7268 31.2843C26.7268 30.1883 26.6758 29.1042 26.5861 28.0312C27.5918 28.4467 28.6204 28.8296 29.6751 29.1679C31.445 29.7363 33.2256 30.1744 35.0071 30.4883C35.2647 30.5338 35.4632 30.2645 35.3443 30.0349L31.396 22.3799L39.1451 18.4798C39.378 18.3629 39.3775 18.0303 39.1422 17.9172C37.5144 17.137 35.8125 16.4574 34.0431 15.8895C32.9878 15.5507 31.9282 15.2636 30.8677 15.0163C31.5784 14.2002 32.2645 13.3524 32.917 12.4653C34.0106 10.9782 34.9828 9.4408 35.8353 7.86457C35.9585 7.63693 35.7611 7.36711 35.5029 7.40785L26.9131 8.75165L25.5527 0.266625C25.5114 0.0116669 25.1912 -0.0908914 25.0098 0.0950555C23.7556 1.38326 22.5757 2.77164 21.4816 4.25873C20.8296 5.14533 20.2255 6.05254 19.6594 6.97221C19.0932 6.05254 18.4891 5.14533 17.8371 4.25873C16.7435 2.77164 15.5636 1.38326 14.3089 0.0950555C14.128 -0.0908914 13.8073 0.0116669 13.7665 0.266625L12.4061 8.75165L3.81626 7.40785C3.55815 7.36711 3.3602 7.63693 3.48343 7.86457C4.33587 9.4408 5.30814 10.9782 6.40219 12.4653C7.05426 13.3524 7.74077 14.1997 8.45154 15.0159Z" fill="#6ABF4B"/>
</svg>
